<mxfile host="app.diagrams.net" modified="2023-12-22T02:35:25.938Z" agent="Mozilla/5.0 (Windows NT 10.0; Win64; x64) AppleWebKit/537.36 (KHTML, like Gecko) Chrome/120.0.0.0 Safari/537.36 Edg/120.0.0.0" etag="LNNSe4bIZ-5C6G3RYS_r" version="22.1.11" type="github">
  <diagram name="第 1 页" id="P_I4_MAtMFTUCJGJabEt">
    <mxGraphModel dx="1783" dy="541" grid="1" gridSize="10" guides="1" tooltips="1" connect="1" arrows="1" fold="1" page="1" pageScale="1" pageWidth="827" pageHeight="1169" math="0" shadow="0">
      <root>
        <mxCell id="0" />
        <mxCell id="1" parent="0" />
        <mxCell id="INtweVqtYeFGkbh7JKD_-1" style="edgeStyle=orthogonalEdgeStyle;rounded=0;orthogonalLoop=1;jettySize=auto;html=1;curved=0;" edge="1" parent="1" source="INtweVqtYeFGkbh7JKD_-3" target="INtweVqtYeFGkbh7JKD_-10">
          <mxGeometry relative="1" as="geometry">
            <Array as="points">
              <mxPoint x="-140" y="320" />
              <mxPoint x="-140" y="320" />
            </Array>
          </mxGeometry>
        </mxCell>
        <mxCell id="INtweVqtYeFGkbh7JKD_-2" value="click “start” button" style="edgeLabel;html=1;align=center;verticalAlign=middle;resizable=0;points=[];" vertex="1" connectable="0" parent="INtweVqtYeFGkbh7JKD_-1">
          <mxGeometry x="-0.259" y="4" relative="1" as="geometry">
            <mxPoint x="12" y="-6" as="offset" />
          </mxGeometry>
        </mxCell>
        <mxCell id="INtweVqtYeFGkbh7JKD_-18" style="edgeStyle=orthogonalEdgeStyle;rounded=0;orthogonalLoop=1;jettySize=auto;html=1;curved=0;" edge="1" parent="1">
          <mxGeometry relative="1" as="geometry">
            <mxPoint x="-210.18965517241395" y="430.0000000000001" as="sourcePoint" />
            <mxPoint x="-105.5" y="430.0000000000001" as="targetPoint" />
          </mxGeometry>
        </mxCell>
        <mxCell id="INtweVqtYeFGkbh7JKD_-19" value="click “download” button" style="edgeLabel;html=1;align=center;verticalAlign=middle;resizable=0;points=[];" vertex="1" connectable="0" parent="INtweVqtYeFGkbh7JKD_-18">
          <mxGeometry x="0.2507" y="1" relative="1" as="geometry">
            <mxPoint x="-15" y="-9" as="offset" />
          </mxGeometry>
        </mxCell>
        <mxCell id="INtweVqtYeFGkbh7JKD_-3" value="" style="shape=umlLifeline;perimeter=lifelinePerimeter;whiteSpace=wrap;html=1;container=1;dropTarget=0;collapsible=0;recursiveResize=0;outlineConnect=0;portConstraint=eastwest;newEdgeStyle={&quot;curved&quot;:0,&quot;rounded&quot;:0};participant=umlActor;" vertex="1" parent="1">
          <mxGeometry x="-220" y="250" width="20" height="260" as="geometry" />
        </mxCell>
        <mxCell id="INtweVqtYeFGkbh7JKD_-6" style="edgeStyle=orthogonalEdgeStyle;rounded=0;orthogonalLoop=1;jettySize=auto;html=1;curved=0;" edge="1" parent="1">
          <mxGeometry relative="1" as="geometry">
            <mxPoint x="-105.18965517241395" y="330.0044827586207" as="sourcePoint" />
            <mxPoint x="-10.5" y="330.0044827586207" as="targetPoint" />
            <Array as="points">
              <mxPoint x="-60" y="329.97" />
              <mxPoint x="-60" y="329.97" />
            </Array>
          </mxGeometry>
        </mxCell>
        <mxCell id="INtweVqtYeFGkbh7JKD_-7" value="start process" style="edgeLabel;html=1;align=center;verticalAlign=middle;resizable=0;points=[];" vertex="1" connectable="0" parent="INtweVqtYeFGkbh7JKD_-6">
          <mxGeometry x="0.2771" relative="1" as="geometry">
            <mxPoint x="-15" y="-10" as="offset" />
          </mxGeometry>
        </mxCell>
        <mxCell id="INtweVqtYeFGkbh7JKD_-8" style="edgeStyle=orthogonalEdgeStyle;rounded=0;orthogonalLoop=1;jettySize=auto;html=1;curved=0;dashed=1;" edge="1" parent="1">
          <mxGeometry relative="1" as="geometry">
            <mxPoint x="-105.49999999999994" y="489.9999999999999" as="sourcePoint" />
            <mxPoint x="-210.14516129032256" y="489.9999999999999" as="targetPoint" />
          </mxGeometry>
        </mxCell>
        <mxCell id="INtweVqtYeFGkbh7JKD_-9" value="file" style="edgeLabel;html=1;align=center;verticalAlign=middle;resizable=0;points=[];" vertex="1" connectable="0" parent="INtweVqtYeFGkbh7JKD_-8">
          <mxGeometry x="-0.0213" y="-1" relative="1" as="geometry">
            <mxPoint x="-4" y="-9" as="offset" />
          </mxGeometry>
        </mxCell>
        <mxCell id="INtweVqtYeFGkbh7JKD_-28" style="edgeStyle=orthogonalEdgeStyle;rounded=0;orthogonalLoop=1;jettySize=auto;html=1;curved=0;" edge="1" parent="1">
          <mxGeometry relative="1" as="geometry">
            <mxPoint x="-105.18965517241395" y="440.0000000000001" as="sourcePoint" />
            <mxPoint x="-10.5" y="440.0000000000001" as="targetPoint" />
          </mxGeometry>
        </mxCell>
        <mxCell id="INtweVqtYeFGkbh7JKD_-29" value="download request" style="edgeLabel;html=1;align=center;verticalAlign=middle;resizable=0;points=[];" vertex="1" connectable="0" parent="INtweVqtYeFGkbh7JKD_-28">
          <mxGeometry x="-0.2327" relative="1" as="geometry">
            <mxPoint x="9" y="-10" as="offset" />
          </mxGeometry>
        </mxCell>
        <mxCell id="INtweVqtYeFGkbh7JKD_-10" value="" style="shape=umlLifeline;perimeter=lifelinePerimeter;whiteSpace=wrap;html=1;container=1;dropTarget=0;collapsible=0;recursiveResize=0;outlineConnect=0;portConstraint=eastwest;newEdgeStyle={&quot;curved&quot;:0,&quot;rounded&quot;:0};participant=umlBoundary;" vertex="1" parent="1">
          <mxGeometry x="-130" y="250" width="50" height="260" as="geometry" />
        </mxCell>
        <mxCell id="INtweVqtYeFGkbh7JKD_-11" style="edgeStyle=orthogonalEdgeStyle;rounded=0;orthogonalLoop=1;jettySize=auto;html=1;curved=0;" edge="1" parent="1">
          <mxGeometry relative="1" as="geometry">
            <mxPoint x="-10.21965517241395" y="360.0044827586207" as="sourcePoint" />
            <mxPoint x="-10.21965517241395" y="380.0044827586207" as="targetPoint" />
            <Array as="points">
              <mxPoint x="29.97" y="359.97" />
              <mxPoint x="29.97" y="379.97" />
            </Array>
          </mxGeometry>
        </mxCell>
        <mxCell id="INtweVqtYeFGkbh7JKD_-12" value="transform code" style="edgeLabel;html=1;align=center;verticalAlign=middle;resizable=0;points=[];" vertex="1" connectable="0" parent="INtweVqtYeFGkbh7JKD_-11">
          <mxGeometry x="0.1919" y="2" relative="1" as="geometry">
            <mxPoint y="-32" as="offset" />
          </mxGeometry>
        </mxCell>
        <mxCell id="INtweVqtYeFGkbh7JKD_-13" style="edgeStyle=orthogonalEdgeStyle;rounded=0;orthogonalLoop=1;jettySize=auto;html=1;curved=0;dashed=1;" edge="1" parent="1">
          <mxGeometry relative="1" as="geometry">
            <Array as="points">
              <mxPoint x="-60" y="469.97" />
              <mxPoint x="-60" y="469.97" />
            </Array>
            <mxPoint x="-10.5" y="470.0044827586207" as="sourcePoint" />
            <mxPoint x="-105.18965517241395" y="470.0044827586207" as="targetPoint" />
          </mxGeometry>
        </mxCell>
        <mxCell id="INtweVqtYeFGkbh7JKD_-14" value="file" style="edgeLabel;html=1;align=center;verticalAlign=middle;resizable=0;points=[];" vertex="1" connectable="0" parent="INtweVqtYeFGkbh7JKD_-13">
          <mxGeometry x="0.0937" y="-1" relative="1" as="geometry">
            <mxPoint y="-9" as="offset" />
          </mxGeometry>
        </mxCell>
        <mxCell id="INtweVqtYeFGkbh7JKD_-22" style="edgeStyle=orthogonalEdgeStyle;rounded=0;orthogonalLoop=1;jettySize=auto;html=1;curved=0;dashed=1;" edge="1" parent="1">
          <mxGeometry relative="1" as="geometry">
            <mxPoint x="-10.5" y="390.0000000000001" as="sourcePoint" />
            <mxPoint x="-105.18965517241395" y="390.0000000000001" as="targetPoint" />
          </mxGeometry>
        </mxCell>
        <mxCell id="INtweVqtYeFGkbh7JKD_-23" value="result" style="edgeLabel;html=1;align=center;verticalAlign=middle;resizable=0;points=[];" vertex="1" connectable="0" parent="INtweVqtYeFGkbh7JKD_-22">
          <mxGeometry x="-0.1606" y="-1" relative="1" as="geometry">
            <mxPoint x="-9" y="-9" as="offset" />
          </mxGeometry>
        </mxCell>
        <mxCell id="INtweVqtYeFGkbh7JKD_-15" value="" style="shape=umlLifeline;perimeter=lifelinePerimeter;whiteSpace=wrap;html=1;container=1;dropTarget=0;collapsible=0;recursiveResize=0;outlineConnect=0;portConstraint=eastwest;newEdgeStyle={&quot;curved&quot;:0,&quot;rounded&quot;:0};participant=umlControl;" vertex="1" parent="1">
          <mxGeometry x="-30" y="250" width="40" height="260" as="geometry" />
        </mxCell>
        <mxCell id="INtweVqtYeFGkbh7JKD_-16" value="DownloadInterface" style="text;align=center;fontStyle=1;verticalAlign=middle;spacingLeft=3;spacingRight=3;strokeColor=none;rotatable=0;points=[[0,0.5],[1,0.5]];portConstraint=eastwest;html=1;" vertex="1" parent="1">
          <mxGeometry x="-145" y="214" width="80" height="26" as="geometry" />
        </mxCell>
        <mxCell id="INtweVqtYeFGkbh7JKD_-17" value="Downloader" style="text;align=center;fontStyle=1;verticalAlign=middle;spacingLeft=3;spacingRight=3;strokeColor=none;rotatable=0;points=[[0,0.5],[1,0.5]];portConstraint=eastwest;html=1;" vertex="1" parent="1">
          <mxGeometry x="-50" y="214" width="80" height="26" as="geometry" />
        </mxCell>
        <mxCell id="INtweVqtYeFGkbh7JKD_-26" style="edgeStyle=orthogonalEdgeStyle;rounded=0;orthogonalLoop=1;jettySize=auto;html=1;curved=0;dashed=1;" edge="1" parent="1">
          <mxGeometry relative="1" as="geometry">
            <mxPoint x="-105.34999999999994" y="399.9999999999999" as="sourcePoint" />
            <mxPoint x="-209.99516129032256" y="399.9999999999999" as="targetPoint" />
          </mxGeometry>
        </mxCell>
        <mxCell id="INtweVqtYeFGkbh7JKD_-27" value="result" style="edgeLabel;html=1;align=center;verticalAlign=middle;resizable=0;points=[];" vertex="1" connectable="0" parent="INtweVqtYeFGkbh7JKD_-26">
          <mxGeometry x="-0.0213" y="-1" relative="1" as="geometry">
            <mxPoint x="-4" y="-9" as="offset" />
          </mxGeometry>
        </mxCell>
      </root>
    </mxGraphModel>
  </diagram>
</mxfile>
